<svg xmlns="http://www.w3.org/2000/svg" version="1.1" xmlns:xlink="http://www.w3.org/1999/xlink" width="200" height="200"><svg xmlns="http://www.w3.org/2000/svg" version="1.1" xmlns:xlink="http://www.w3.org/1999/xlink" viewBox="0 0 200 200"><rect width="200" height="200" fill="url('#gradient')"></rect><defs><linearGradient id="SvgjsLinearGradient1001" gradientTransform="rotate(45 0.5 0.5)"><stop offset="0%" stop-color="#dee90b"></stop><stop offset="100%" stop-color="#d9e241"></stop></linearGradient></defs><g><g fill="#1b3855" transform="matrix(4.060806345009914,0,0,4.060806345009914,7.4561377589228215,121.01545466922879)" stroke="#0e5278" stroke-width="0"><path d="M8.41-3.78L8.41-3.78Q8.41-4.53 7.88-4.95Q7.34-5.37 6.01-5.82Q4.67-6.27 3.82-6.69L3.82-6.69Q1.05-8.05 1.05-10.42L1.05-10.42Q1.05-11.60 1.74-12.50Q2.43-13.41 3.69-13.91Q4.95-14.41 6.52-14.41L6.52-14.41Q8.06-14.41 9.27-13.87Q10.49-13.32 11.16-12.31Q11.84-11.30 11.84-10L11.84-10L8.42-10Q8.42-10.87 7.89-11.35Q7.35-11.83 6.45-11.83L6.45-11.83Q5.53-11.83 5.00-11.42Q4.46-11.02 4.46-10.39L4.46-10.39Q4.46-9.84 5.05-9.40Q5.63-8.96 7.11-8.48Q8.58-8.01 9.53-7.46L9.53-7.46Q11.84-6.13 11.84-3.80L11.84-3.80Q11.84-1.93 10.43-0.87Q9.02 0.20 6.57 0.20L6.57 0.20Q4.84 0.20 3.44-0.42Q2.04-1.04 1.33-2.12Q0.63-3.20 0.63-4.61L0.63-4.61L4.06-4.61Q4.06-3.47 4.65-2.92Q5.24-2.38 6.57-2.38L6.57-2.38Q7.42-2.38 7.92-2.75Q8.41-3.12 8.41-3.78ZM17.91-2.34L17.91-2.34Q18.60-2.34 18.98-2.72Q19.37-3.10 19.36-3.77L19.36-3.77L22.44-3.77Q22.44-2.03 21.20-0.92Q19.95 0.20 17.99 0.20L17.99 0.20Q15.68 0.20 14.36-1.25Q13.03-2.70 13.03-5.25L13.03-5.25L13.03-5.39Q13.03-6.99 13.62-8.22Q14.21-9.44 15.32-10.10Q16.44-10.76 17.96-10.76L17.96-10.76Q20.02-10.76 21.23-9.62Q22.44-8.48 22.44-6.52L22.44-6.52L19.36-6.52Q19.36-7.34 18.96-7.78Q18.55-8.22 17.88-8.22L17.88-8.22Q16.60-8.22 16.39-6.59L16.39-6.59Q16.32-6.07 16.32-5.17L16.32-5.17Q16.32-3.57 16.70-2.96Q17.08-2.34 17.91-2.34ZM35.15-14.22L35.15-11.57L30.88-11.57L30.88 0L27.45 0L27.45-11.57L23.26-11.57L23.26-14.22L35.15-14.22ZM35.16-5.39L35.16-5.39Q35.16-7.91 36.25-9.34Q37.34-10.76 39.27-10.76L39.27-10.76Q40.89-10.76 41.87-9.43L41.87-9.43L42.10-10.57L44.95-10.57L44.95 4.06L41.65 4.06L41.65-0.88Q40.70 0.20 39.25 0.20L39.25 0.20Q37.37 0.20 36.26-1.25Q35.16-2.71 35.16-5.39ZM38.46-5.77L38.45-5.19Q38.45-2.34 40.09-2.34L40.09-2.34Q41.22-2.34 41.65-3.20L41.65-3.20L41.65-7.38Q41.24-8.22 40.11-8.22L40.11-8.22Q38.57-8.22 38.46-5.77L38.46-5.77Z"></path></g></g></svg><style>@media (prefers-color-scheme: light) { :root { filter: none; } }
@media (prefers-color-scheme: dark) { :root { filter: none; } }
</style></svg>